<svg width="632" height="977" viewBox="0 0 632 977" fill="none" xmlns="http://www.w3.org/2000/svg">
<rect width="26.1994" height="187.531" transform="matrix(0.209371 -0.977836 -0.977836 -0.209371 233.039 878.13)" fill="#E8D5B5"/>
<rect width="15.1957" height="208.941" transform="matrix(0.209371 -0.977836 -0.977836 -0.209371 308.3 777.427)" fill="#E8D5B5"/>
<rect width="10.4798" height="113.783" transform="matrix(0.209371 -0.977836 -0.977836 -0.209371 180.19 805.726)" fill="#E8D5B5"/>
<rect width="26.1994" height="202.638" transform="matrix(0.209371 -0.977836 -0.977836 -0.209371 300.69 634.329)" fill="#E8D5B5"/>
<rect width="6.28786" height="204.384" transform="matrix(0.209371 -0.977836 -0.977836 -0.209371 285.897 744.765)" fill="#E8D5B5"/>
<rect width="13.6237" height="159.198" transform="matrix(0.209371 -0.977836 -0.977836 -0.209371 290.071 549.532)" fill="#E8D5B5"/>
<rect width="4.71589" height="187.829" transform="matrix(0.209371 -0.977836 -0.977836 -0.209371 311.551 583.604)" fill="#E8D5B5"/>
<rect width="8.9078" height="219.645" transform="matrix(0.209371 -0.977836 -0.977836 -0.209371 282.915 848.084)" fill="#E8D5B5"/>
<rect width="15.1957" height="127.358" transform="matrix(0.209371 -0.977836 -0.977836 -0.209371 254.835 488.937)" fill="#E8D5B5"/>
<rect width="12.0517" height="115.897" transform="matrix(0.209371 -0.977836 -0.977836 -0.209371 254.818 434.275)" fill="#E8D5B5"/>
<rect width="52.3988" height="69.1092" transform="matrix(0.209371 -0.977836 -0.977836 -0.209371 128.059 776.88)" fill="#E8D5B5"/>
<rect width="25.6754" height="182.992" transform="matrix(0.209371 -0.977836 -0.977836 -0.209371 250.41 691.618)" fill="#E8D5B5"/>
<rect width="8.38381" height="106.873" transform="matrix(0.209371 -0.977836 -0.977836 -0.209371 256.678 390.732)" fill="#E8D5B5"/>
<rect width="18.8636" height="266.811" transform="matrix(0.209371 -0.977836 -0.977836 -0.209371 403.375 355.159)" fill="#E8D5B5"/>
<rect width="9.95577" height="178.697" transform="matrix(0.209371 -0.977836 -0.977836 -0.209371 334.042 384.255)" fill="#E8D5B5"/>
<rect width="11.0037" height="266.015" transform="matrix(0.209371 -0.977836 -0.977836 -0.209371 418.899 288.285)" fill="#E8D5B5"/>
<rect width="8.9078" height="310.004" transform="matrix(0.209371 -0.977836 -0.977836 -0.209371 459.324 317.84)" fill="#E8D5B5"/>
<rect width="46.1109" height="452.936" transform="matrix(0.209371 -0.977836 -0.977836 -0.209371 592.1 279.286)" fill="#E8D5B5"/>
<rect width="11.5277" height="373.332" transform="matrix(0.209371 -0.977836 -0.977836 -0.209371 557.67 196.357)" fill="#E8D5B5"/>
<rect width="7.85982" height="269.279" transform="matrix(0.209371 -0.977836 -0.977836 -0.209371 470.691 138.615)" fill="#E8D5B5"/>
<rect width="35.6312" height="323.826" transform="matrix(0.209371 -0.977836 -0.977836 -0.209371 524.38 108.314)" fill="#E8D5B5"/>
<rect width="12.5757" height="132.048" transform="matrix(0.209371 -0.977836 -0.977836 -0.209371 161.166 915.792)" fill="#E8D5B5"/>
</svg>
