<svg width="450" height="830" viewBox="0 0 450 830" fill="none" xmlns="http://www.w3.org/2000/svg">
<rect width="26.1994" height="187.531" transform="matrix(0.209371 -0.977836 -0.977836 -0.209371 50.7497 731.996)" fill="#E8D5B5"/>
<rect width="15.1957" height="208.941" transform="matrix(0.209371 -0.977836 -0.977836 -0.209371 126.011 631.293)" fill="#E8D5B5"/>
<rect width="10.4798" height="113.783" transform="matrix(0.209371 -0.977836 -0.977836 -0.209371 -2.09918 659.592)" fill="#E8D5B5"/>
<rect width="26.1994" height="202.638" transform="matrix(0.209371 -0.977836 -0.977836 -0.209371 118.401 488.195)" fill="#E8D5B5"/>
<rect width="6.28786" height="204.384" transform="matrix(0.209371 -0.977836 -0.977836 -0.209371 103.608 598.631)" fill="#E8D5B5"/>
<rect width="13.6237" height="159.198" transform="matrix(0.209371 -0.977836 -0.977836 -0.209371 107.782 403.398)" fill="#E8D5B5"/>
<rect width="4.71589" height="187.829" transform="matrix(0.209371 -0.977836 -0.977836 -0.209371 129.262 437.47)" fill="#E8D5B5"/>
<rect width="8.9078" height="219.645" transform="matrix(0.209371 -0.977836 -0.977836 -0.209371 100.626 701.95)" fill="#E8D5B5"/>
<rect width="15.1957" height="127.358" transform="matrix(0.209371 -0.977836 -0.977836 -0.209371 72.5458 342.803)" fill="#E8D5B5"/>
<rect width="12.0517" height="115.897" transform="matrix(0.209371 -0.977836 -0.977836 -0.209371 72.5289 288.141)" fill="#E8D5B5"/>
<rect width="25.6754" height="182.992" transform="matrix(0.209371 -0.977836 -0.977836 -0.209371 68.1214 545.484)" fill="#E8D5B5"/>
<rect width="8.38381" height="106.873" transform="matrix(0.209371 -0.977836 -0.977836 -0.209371 74.3895 244.598)" fill="#E8D5B5"/>
<rect width="18.8636" height="266.811" transform="matrix(0.209371 -0.977836 -0.977836 -0.209371 221.086 209.025)" fill="#E8D5B5"/>
<rect width="9.95577" height="178.697" transform="matrix(0.209371 -0.977836 -0.977836 -0.209371 151.753 238.121)" fill="#E8D5B5"/>
<rect width="11.0037" height="266.015" transform="matrix(0.209371 -0.977836 -0.977836 -0.209371 236.61 142.151)" fill="#E8D5B5"/>
<rect width="8.9078" height="310.004" transform="matrix(0.209371 -0.977836 -0.977836 -0.209371 277.035 171.705)" fill="#E8D5B5"/>
<rect width="46.1109" height="452.936" transform="matrix(0.209371 -0.977836 -0.977836 -0.209371 409.811 133.152)" fill="#E8D5B5"/>
<rect width="11.5277" height="373.332" transform="matrix(0.209371 -0.977836 -0.977836 -0.209371 375.381 50.2229)" fill="#E8D5B5"/>
</svg>
