<svg width="386" height="305" viewBox="0 0 386 305" fill="none" xmlns="http://www.w3.org/2000/svg">
<path fill-rule="evenodd" clip-rule="evenodd" d="M140.886 35.1061C141.724 34.8454 141.521 35.2411 141.073 35.6887C141.012 35.5118 140.949 35.317 140.886 35.1061ZM263.701 79.0618C263.701 79.0592 263.701 79.0567 263.702 79.0541L263.701 79.0618Z" fill="#E8D5B5"/>
<path fill-rule="evenodd" clip-rule="evenodd" d="M131.618 156.353C131.258 161.515 133.719 171.961 134.32 173.162C134.92 174.362 137.321 176.463 137.471 178.114C139.25 179.866 141.987 182.3 144.884 184.877C147.365 187.083 149.964 189.394 152.179 191.471C156.559 195.577 162.085 200.626 166.437 203.928C170.789 207.23 185.047 215.334 192.851 215.184C200.655 215.034 209.059 213.833 215.213 207.83C217.973 205.137 220.22 203.048 222.021 201.374C224.235 199.315 225.776 197.883 226.769 196.724L240.576 180.816L246.529 174.884C246.599 174.76 246.665 174.636 246.73 174.512C248.41 171.271 249.131 158.854 249.281 153.051L245.379 166.708L241.777 171.061L234.123 178.114L227.669 183.067L226.769 177.364L225.268 169.11L227.669 163.707V157.854L221.816 152.751L212.661 155.452L202.306 152.751L191.35 154.402L179.794 152.751L166.437 155.452L162.235 156.353L157.882 163.707L158.933 167.909L162.235 173.162L160.284 176.463L158.933 181.716L157.882 188.62L154.13 187.419L146.026 179.165L137.471 171.061L131.618 156.353ZM166.437 176.463L168.838 167.909V166.558H179.794L187.748 163.707L192.701 165.207L197.353 163.707L203.807 165.958L215.963 165.207V166.558L217.464 176.463L215.213 186.669L207.409 192.522L201.255 186.669L207.859 179.915L205.007 177.364L201.255 176.013L193.601 177.364L186.548 176.463L182.946 178.114L179.794 181.716L185.947 186.669L178.743 192.522L170.639 185.918L166.437 176.463Z" fill="#E8D5B5"/>
<path d="M117.661 95.2703C117.661 97.9117 119.862 106.176 120.963 109.978L126.366 119.586L129.217 130.539L131.618 107.427L136.271 94.0697V83.0482L137.922 70.6572L142.424 57.7504L150.678 49.0457L162.235 42.8925L176.792 44.8435H195.252L207.559 42.8925L224.818 46.7945L236.374 57.7504L240.426 68.5561V83.0482L246.88 102.024L248.681 121.384V131.59L257.235 103.675L258.436 102.024C261.39 97.8665 262.748 87.8076 263.442 81.4977C263.529 80.7101 263.605 79.9808 263.673 79.3287L263.701 79.0618L263.702 79.0541L263.702 79.0509L263.702 79.0492L263.713 78.9482L263.746 78.6305C263.844 77.6812 263.923 76.9486 263.989 76.5103C264.023 76.2814 264.106 75.8855 264.216 75.3561C265.081 71.2165 267.66 58.8702 262.338 53.5481C257.535 48.7456 255.034 43.7429 254.384 41.8419C252.182 35.0883 246.639 20.4105 242.077 15.728C236.374 9.87491 215.963 2.37095 209.21 2.37095C203.914 2.37095 197.143 3.84717 193.887 4.55703C192.99 4.75252 192.36 4.88989 192.1 4.9223C191.837 4.95526 191.544 4.76386 191.086 4.46413C189.458 3.39893 185.737 0.965472 173.791 2.37095C161.544 3.81171 153.08 8.6743 150.378 10.9255C148.177 12.3763 143.235 16.5385 141.073 21.5812C139.059 26.281 140.017 32.2149 140.886 35.1061C141.724 34.8454 141.521 35.2411 141.073 35.6887C141.012 35.5118 140.949 35.317 140.886 35.1061C140.038 35.3699 138.124 36.3058 134.32 38.5402C126.756 42.9825 118.461 51.1969 115.26 54.7488C106.705 68.1059 108.656 72.7584 108.656 72.7584C108.656 76.1485 111.452 80.2106 113.406 83.0482C114.454 84.5712 115.26 85.7414 115.26 86.2655C115.26 86.8699 115.649 87.9124 116.114 89.1577C116.804 91.0048 117.661 93.2982 117.661 95.2703Z" fill="#E8D5B5"/>
<path d="M131.618 156.353C131.258 161.515 133.719 171.961 134.32 173.162C134.92 174.362 137.321 176.463 137.471 178.114M131.618 156.353C129.767 156.403 125.615 156.083 123.814 154.402C121.563 152.301 118.111 145.997 117.661 144.647C117.211 143.296 113.459 124.386 113.459 121.234C113.459 120.757 113.445 120.197 113.43 119.586C113.346 116.161 113.222 111.124 115.26 109.978C117.181 108.898 119.862 109.528 120.963 109.978M131.618 156.353L137.471 171.061L146.026 179.165L154.13 187.419L157.882 188.62L158.933 181.716L160.284 176.463L162.235 173.162L158.933 167.909L157.882 163.707L162.235 156.353L166.437 155.452L179.794 152.751L191.35 154.402L202.306 152.751L212.661 155.452L221.816 152.751L227.669 157.854V163.707L225.268 169.11L226.769 177.364L227.669 183.067L234.123 178.114L241.777 171.061L245.379 166.708L249.281 153.051M120.963 109.978C119.862 106.176 117.661 97.9117 117.661 95.2703C117.661 93.2982 116.804 91.0048 116.114 89.1577C115.649 87.9124 115.26 86.8699 115.26 86.2655C115.26 85.7414 114.454 84.5712 113.406 83.0482C111.452 80.2106 108.656 76.1485 108.656 72.7584C108.656 72.7584 106.705 68.1059 115.26 54.7488C118.461 51.1969 126.756 42.9825 134.32 38.5402C138.124 36.3058 140.038 35.3699 140.886 35.1061M120.963 109.978L126.366 119.586L129.217 130.539L131.618 107.427L136.271 94.0697V83.0482L137.922 70.6572L142.424 57.7504L150.678 49.0457L162.235 42.8925L176.792 44.8435H195.252L207.559 42.8925L224.818 46.7945L236.374 57.7504L240.426 68.5561V83.0482L246.88 102.024L248.681 121.384V131.59L257.235 103.675M257.235 103.675L258.436 102.024C261.39 97.8665 262.748 87.8076 263.442 81.4977C263.529 80.7101 263.605 79.9808 263.673 79.3287M257.235 103.675C258.486 103.225 261.287 102.594 262.488 103.675C263.989 105.025 268.341 113.58 266.69 120.784C266.215 122.858 265.752 125.505 265.258 128.326C264.038 135.303 262.631 143.348 260.387 146.447C259.689 147.411 259.131 148.324 258.626 149.149C256.852 152.049 255.738 153.869 251.532 153.051C247.21 152.211 248.23 152.701 249.281 153.051M249.281 153.051C249.131 158.854 248.41 171.271 246.73 174.512C246.665 174.636 246.599 174.76 246.529 174.884M137.471 178.114C137.622 179.765 138.822 184.568 138.822 184.568C141.374 188.62 138.822 202.427 138.822 202.427C135.014 205.265 133.992 208.994 132.929 212.875C131.854 216.795 130.738 220.87 126.666 224.339C120.182 229.862 105.755 235.045 99.3512 236.946L73.6876 251.203C68.9851 253.654 55.1677 260.088 37.5183 266.211C19.869 272.334 11.2544 286.372 9.15327 292.625L3 303.281H383.602C383.902 303.181 384.323 301.54 383.602 295.777C382.702 288.573 364.392 270.413 359.89 266.211C356.288 262.849 326.472 249.302 312.014 242.949C302.54 239.134 289.711 233.562 278.538 228.71L278.537 228.709C267.881 224.082 258.731 220.108 255.434 218.936C252.745 217.98 251.548 215.264 250.27 212.365C249.591 210.826 248.889 209.236 247.93 207.83C246.321 205.472 244.005 204.181 242.224 203.188C240.945 202.476 239.943 201.917 239.676 201.227C239.013 199.512 239.049 196.282 239.075 193.99V193.986C239.075 193.943 239.076 193.9 239.076 193.857C239.084 193.213 239.089 192.648 239.075 192.222C239.001 189.842 239.075 184.117 239.676 183.067C240.888 180.945 242.242 179.658 243.507 178.454C244.64 177.377 245.702 176.366 246.529 174.884M137.471 178.114C139.25 179.866 141.987 182.3 144.884 184.877C147.365 187.083 149.964 189.394 152.179 191.471C156.559 195.577 162.085 200.626 166.437 203.928C170.789 207.23 185.047 215.334 192.851 215.184C200.655 215.034 209.059 213.833 215.213 207.83C217.973 205.137 220.22 203.048 222.021 201.374C224.235 199.315 225.776 197.883 226.769 196.724L240.576 180.816L246.529 174.884M140.886 35.1061C140.017 32.2149 139.059 26.281 141.073 21.5812C143.235 16.5385 148.177 12.3763 150.378 10.9255C153.08 8.6743 161.544 3.81171 173.791 2.37095C185.737 0.965472 189.458 3.39893 191.086 4.46413C191.544 4.76386 191.837 4.95526 192.1 4.9223C192.36 4.88989 192.99 4.75252 193.887 4.55703C197.143 3.84717 203.914 2.37095 209.21 2.37095C215.963 2.37095 236.374 9.87491 242.077 15.728C246.639 20.4105 252.182 35.0883 254.384 41.8419C255.034 43.7429 257.535 48.7456 262.338 53.5481C267.66 58.8702 265.081 71.2165 264.216 75.3561C264.106 75.8855 264.023 76.2814 263.989 76.5103C263.923 76.9486 263.844 77.6812 263.746 78.6305M140.886 35.1061C140.949 35.317 141.012 35.5118 141.073 35.6887C141.521 35.2411 141.724 34.8454 140.886 35.1061ZM263.702 79.0509L263.702 79.0492M263.702 79.0509L263.702 79.0541M263.702 79.0509C263.706 79.0166 263.709 78.9821 263.713 78.9482M263.746 78.6305L263.713 78.9482M263.746 78.6305C263.735 78.7339 263.724 78.8398 263.713 78.9482M263.702 79.0492L263.713 78.9482M263.702 79.0492C263.706 79.0153 263.709 78.9817 263.713 78.9482M263.673 79.3287C263.683 79.2383 263.692 79.1493 263.701 79.0618M263.673 79.3287L263.701 79.0618M263.702 79.0541L263.701 79.0618M263.702 79.0541C263.701 79.0567 263.701 79.0592 263.701 79.0618M168.838 167.909L166.437 176.463L170.639 185.918L178.743 192.522L185.947 186.669L179.794 181.716L182.946 178.114L186.548 176.463L193.601 177.364L201.255 176.013L205.007 177.364L207.859 179.915L201.255 186.669L207.409 192.522L215.213 186.669L217.464 176.463L215.963 166.558V165.207L203.807 165.958L197.353 163.707L192.701 165.207L187.748 163.707L179.794 166.558H168.838V167.909Z" stroke="#E8D5B5" stroke-width="3"/>
</svg>
