<svg
    class="main-animation"
    width="1711"
    height="1023"
    viewBox="0 0 1711 1023"
    fill="none"
    xmlns="http://www.w3.org/2000/svg"
>
    <rect y="376" width="79" height="647" fill="#E8D5B5" />
    <rect x="145" y="613" width="39" height="410" fill="#E8D5B5" />
    <rect x="322" y="397" width="51" height="626" fill="#E8D5B5" />
    <rect x="483" y="147" width="14" height="876" fill="#E8D5B5" />
    <rect x="609" y="368" width="36" height="655" fill="#E8D5B5" />
    <rect x="543" y="503" width="36" height="520" fill="#E8D5B5" />
    <rect x="217" y="151" width="131" height="872" fill="#E8D5B5" />
    <rect x="763" y="474" width="27" height="549" fill="#E8D5B5" />
    <rect x="839" y="276" width="49" height="747" fill="#E8D5B5" />
    <rect x="1007" y="494" width="20" height="529" fill="#E8D5B5" />
    <rect x="59" width="39" height="1023" fill="#E8D5B5" />
    <rect x="947" y="536" width="30" height="487" fill="#E8D5B5" />
    <rect x="1090" y="341" width="48" height="682" fill="#E8D5B5" />
    <rect x="1267" y="585" width="39" height="438" fill="#E8D5B5" />
    <rect x="1474" y="439" width="48" height="584" fill="#E8D5B5" />
    <rect x="1371" y="416" width="38" height="607" fill="#E8D5B5" />
    <rect x="1701" y="780" width="10" height="243" fill="#E8D5B5" />
    <rect x="1617" y="825" width="10" height="198" fill="#E8D5B5" />
    <rect x="1664" y="382" width="20" height="641" fill="#E8D5B5" />
</svg>